<?xml version="1.0" encoding="utf-8"?>
<!-- Generator: Adobe Illustrator 15.0.0, SVG Export Plug-In . SVG Version: 6.00 Build 0)  -->
<!DOCTYPE svg PUBLIC "-//W3C//DTD SVG 1.1//EN" "http://www.w3.org/Graphics/SVG/1.1/DTD/svg11.dtd">
<svg version="1.1" id="Ebene_1" xmlns="http://www.w3.org/2000/svg" xmlns:xlink="http://www.w3.org/1999/xlink" x="0px" y="0px"
	 width="141.73px" height="141.73px" viewBox="0 0 141.73 141.73" enable-background="new 0 0 141.73 141.73" xml:space="preserve">
<g id="Padding__x26__Artboard_3_">
	<rect x="0.257" y="-0.002" fill="#333333" width="141.731" height="141.732"/>
</g>
<g>

		<line opacity="0.2" fill="none" stroke="#BA3D3D" stroke-width="0.25" stroke-linecap="round" stroke-linejoin="round" stroke-miterlimit="10" x1="41.02" y1="37.036" x2="38.523" y2="28.479"/>

		<line opacity="0.2" fill="none" stroke="#BA3D3D" stroke-width="0.25" stroke-linecap="round" stroke-linejoin="round" stroke-miterlimit="10" x1="34.839" y1="6.302" x2="29.345" y2="19.304"/>

		<line opacity="0.2" fill="none" stroke="#BA3D3D" stroke-width="0.25" stroke-linecap="round" stroke-linejoin="round" stroke-miterlimit="10" x1="106.946" y1="13.88" x2="117.576" y2="18.997"/>

		<line opacity="0.2" fill="none" stroke="#BA3D3D" stroke-width="0.25" stroke-linecap="round" stroke-linejoin="round" stroke-miterlimit="10" x1="98.367" y1="84.152" x2="94.154" y2="51.661"/>

		<line opacity="0.2" fill="none" stroke="#BA3D3D" stroke-width="0.25" stroke-linecap="round" stroke-linejoin="round" stroke-miterlimit="10" x1="105.645" y1="70.085" x2="111.512" y2="72.922"/>
	<g>
		<g>
			<circle fill="#BA3D3D" cx="122.474" cy="15.61" r="1.007"/>
		</g>
		<g>
			<circle fill="#BA3D3D" cx="117.363" cy="18.923" r="0.912"/>
		</g>
		<g>
			<circle fill="#BA3D3D" cx="114.102" cy="14.406" r="0.321"/>
		</g>
		<g>
			<circle fill="#BA3D3D" cx="106.743" cy="13.569" r="0.923"/>
		</g>
		<g>
			<circle fill="#BA3D3D" cx="111.729" cy="1.755" r="1.122"/>
		</g>
		<g>
			<circle fill="#BA3D3D" cx="94.11" cy="50.229" r="1.187"/>
		</g>
		<g>
			<circle fill="#BA3D3D" cx="102.708" cy="54.431" r="0.74"/>
		</g>
		<g>
			<circle fill="#BA3D3D" cx="111.56" cy="57.237" r="0.321"/>
		</g>
		<g>
			<circle fill="#BA3D3D" cx="106.953" cy="61.138" r="0.305"/>
		</g>
		<g>
			<circle fill="#BA3D3D" cx="105.615" cy="65.06" r="0.951"/>
		</g>
		<g>
			<circle fill="#BA3D3D" cx="105.716" cy="70.181" r="1.006"/>
		</g>
		<g>
			<circle fill="#BA3D3D" cx="111.358" cy="72.476" r="0.912"/>
		</g>
		<g>
			<circle fill="#BA3D3D" cx="108.995" cy="76.968" r="0.321"/>
		</g>
		<g>
			<circle fill="#BA3D3D" cx="111.333" cy="83.996" r="0.922"/>
		</g>
		<g>
			<circle fill="#BA3D3D" cx="98.516" cy="84.446" r="1.122"/>
		</g>
		<g>
			<circle fill="#BA3D3D" cx="41.13" cy="37.545" r="0.952"/>
		</g>
		<g>
			<circle fill="#BA3D3D" cx="42.728" cy="32.681" r="1.007"/>
		</g>
		<g>
			<circle fill="#BA3D3D" cx="38.233" cy="27.948" r="0.912"/>
		</g>
		<g>
			<circle fill="#BA3D3D" cx="37.86" cy="21.222" r="0.321"/>
		</g>
		<g>
			<circle fill="#BA3D3D" cx="29.688" cy="18.774" r="0.923"/>
		</g>
		<g>
			<circle fill="#BA3D3D" cx="34.563" cy="6.912" r="1.121"/>
		</g>
	</g>
</g>
<g>
	<g id="Icons_3_">
		<g>
			<g>

					<path fill="none" stroke="#BA3D3D" stroke-width="0.7" stroke-linecap="round" stroke-linejoin="round" stroke-miterlimit="10" d="
					M84.939,87.249H57.92c-2.423,0-4.39-2.194-4.39-4.902V22.405c0-2.707,1.967-4.902,4.39-4.902h27.02
					c2.424,0,4.39,2.195,4.39,4.902v59.941C89.329,85.055,87.363,87.249,84.939,87.249z"/>

					<rect x="53.53" y="26.323" fill="none" stroke="#BA3D3D" stroke-width="0.7" stroke-linecap="round" stroke-linejoin="round" stroke-miterlimit="10" width="35.799" height="54.26"/>
			</g>
			<ellipse fill="#BA3D3D" stroke="#BA3D3D" stroke-miterlimit="10" cx="71.431" cy="83.81" rx="1.339" ry="1.496"/>
			<g>
				<ellipse fill="#BA3D3D" stroke="#BA3D3D" stroke-miterlimit="10" cx="77.41" cy="21.844" rx="0.761" ry="0.761"/>

					<line fill="none" stroke="#BA3D3D" stroke-width="0.7" stroke-linecap="round" stroke-linejoin="round" stroke-miterlimit="10" x1="64.693" y1="21.845" x2="72.416" y2="21.845"/>
			</g>

				<line fill="none" stroke="#BA3D3D" stroke-width="0.7" stroke-linecap="round" stroke-linejoin="round" stroke-miterlimit="10" x1="64.131" y1="29.69" x2="58.178" y2="35.674"/>

				<line fill="none" stroke="#BA3D3D" stroke-width="0.7" stroke-linecap="round" stroke-linejoin="round" stroke-miterlimit="10" x1="65.232" y1="32.683" x2="61.521" y2="36.41"/>
		</g>
	</g>
	<g id="Layer_1_3_">
		<path fill="none" stroke="#BA3D3D" stroke-width="0.5" stroke-miterlimit="10" d="M83.382,65.255h3.802V43.071H61.197v3.803
			h-4.437v22.817h26.621V65.255z M62.466,44.339h23.45v19.648h-2.534V46.874H62.466V44.339z M61.197,48.142h20.917v4.808
			l-2.536-2.534L68.804,61.188l-6.338-6.338l-4.438,4.438V48.142H61.197z M82.114,68.423H58.028v-7.342l4.438-4.437l6.338,6.337
			l10.774-10.775l2.536,2.536v10.513V68.423z"/>
		<path fill="none" stroke="#BA3D3D" stroke-width="0.5" stroke-miterlimit="10" d="M68.804,56.382c1.746,0,3.169-1.422,3.169-3.17
			c0-1.747-1.423-3.169-3.169-3.169c-1.747,0-3.17,1.422-3.17,3.169C65.634,54.96,67.057,56.382,68.804,56.382z M68.804,51.312
			c1.049,0,1.901,0.853,1.901,1.9c0,1.049-0.853,1.901-1.901,1.901s-1.902-0.853-1.902-1.901
			C66.901,52.164,67.755,51.312,68.804,51.312z"/>
	</g>
</g>
<g>
	<path fill="#FFFFFF" d="M11.072,103.422c1.879-0.823,3.89-1.235,6.033-1.235c3.742,0,6.941,1.344,9.597,4.03
		c2.654,2.687,3.981,5.926,3.981,9.716c0,3.854-1.319,7.134-3.958,9.836c-2.639,2.703-5.813,4.055-9.523,4.055
		c-2.096,0-4.022-0.428-5.782-1.284c-1.76-0.855-3.351-2.154-4.773-3.898v14.683H3.287c0,0.031,0-8.277,0-24.926
		c0.288-2.319,1.152-4.678,2.592-7.077C7.461,105.545,9.192,104.246,11.072,103.422z M9.428,108.496
		c-2.015,2.047-3.022,4.598-3.022,7.652c0,1.983,0.447,3.778,1.344,5.386c0.896,1.607,2.175,2.879,3.838,3.814
		s3.423,1.403,5.278,1.403c1.823,0,3.538-0.468,5.146-1.403s2.887-2.255,3.838-3.958c0.952-1.703,1.428-3.482,1.428-5.338
		c0-1.887-0.472-3.662-1.415-5.326c-0.944-1.663-2.212-2.962-3.803-3.898c-1.592-0.936-3.339-1.403-5.242-1.403
		C13.907,105.425,11.444,106.449,9.428,108.496z"/>
	<path fill="#FFFFFF" d="M33.518,93.263h3.407v14.897c1.358-1.808,2.858-3.158,4.498-4.055c1.639-0.896,3.418-1.343,5.337-1.343
		c1.983,0,3.734,0.5,5.254,1.499c1.52,1,2.64,2.339,3.358,4.019c0.72,1.679,1.08,4.326,1.08,7.94v13.53h-3.358v-12.547
		c0-3.038-0.129-5.069-0.384-6.094c-0.416-1.742-1.176-3.05-2.279-3.922c-1.104-0.871-2.551-1.308-4.342-1.308
		c-2.048,0-3.883,0.676-5.506,2.027c-1.624,1.352-2.691,3.026-3.203,5.025c-0.304,1.28-0.455,3.671-0.455,7.174v9.644h-3.407V93.263
		z"/>
	<path fill="#FFFFFF" d="M73.152,102.091c4.047,0,7.404,1.463,10.076,4.39c2.414,2.688,3.623,5.862,3.623,9.524
		s-1.281,6.865-3.84,9.607c-2.559,2.743-5.846,4.114-9.859,4.114c-4.03,0-7.321-1.371-9.872-4.114
		c-2.551-2.742-3.826-5.945-3.826-9.607c0-3.646,1.207-6.813,3.622-9.5C65.748,103.562,69.106,102.091,73.152,102.091z
		 M73.152,105.401c-2.798,0-5.206,1.04-7.22,3.118c-2.016,2.079-3.023,4.591-3.023,7.533c0,1.903,0.46,3.683,1.38,5.338
		c0.919,1.655,2.163,2.927,3.73,3.814s3.278,1.331,5.133,1.331c1.887,0,3.611-0.443,5.17-1.331s2.795-2.159,3.707-3.814
		s1.367-3.435,1.367-5.338c0-2.942-1.008-5.454-3.023-7.533C78.359,106.441,75.951,105.401,73.152,105.401z"/>
	<path fill="#FFFFFF" d="M101.654,128.791c-1.76,0.672-3.326,0.983-4.703,0.936c-2.59-0.144-4.637-1.487-6.141-4.03
		c-0.992-1.694-1.432-3.454-1.32-5.277V93.095h3.408v12.714h6.26v2.903h-6.236v11.131c0.416,3.471,1.344,5.59,2.783,6.357
		c1.598,0.752,3.23,0.68,4.893-0.216C101.029,127.184,101.381,128.119,101.654,128.791z"/>
	<path fill="#FFFFFF" d="M108.229,92.566c0.768,0,1.426,0.272,1.979,0.815c0.551,0.544,0.828,1.2,0.828,1.968
		s-0.277,1.427-0.828,1.979c-0.553,0.553-1.211,0.828-1.979,0.828c-0.77,0-1.424-0.275-1.969-0.828
		c-0.543-0.552-0.814-1.211-0.814-1.979s0.271-1.424,0.814-1.968C106.805,92.839,107.459,92.566,108.229,92.566z M106.549,103.386
		h3.383v26.317h-3.383V103.386z"/>
	<path fill="#FFFFFF" d="M116.408,93.215h3.406v36.488h-3.406V93.215z"/>
	<path fill="#FFFFFF" d="M140.037,105.641l-2.158,2.256c-1.822-1.76-3.59-2.64-5.301-2.64c-1.104,0-2.049,0.36-2.832,1.08
		s-1.176,1.575-1.176,2.566c0,0.832,0.328,1.632,0.984,2.399c0.639,0.815,1.99,1.751,4.055,2.807
		c2.525,1.296,4.238,2.552,5.133,3.767c0.879,1.231,1.32,2.615,1.32,4.15c0,2.144-0.756,3.962-2.268,5.457
		c-1.512,1.496-3.402,2.243-5.674,2.243c-1.52,0-2.971-0.323-4.354-0.972c-1.385-0.647-2.523-1.555-3.418-2.723l2.135-2.423
		c1.727,1.951,3.559,2.927,5.492,2.927c1.344,0,2.492-0.436,3.443-1.308c0.951-0.871,1.428-1.891,1.428-3.059
		c0-0.976-0.312-1.839-0.936-2.591c-0.625-0.752-2.039-1.695-4.246-2.831c-2.383-1.199-3.998-2.406-4.846-3.622
		c-0.865-1.184-1.297-2.543-1.297-4.078c0-1.999,0.684-3.658,2.053-4.979c1.367-1.319,3.082-1.979,5.145-1.979
		C135.137,102.091,137.574,103.274,140.037,105.641z"/>
</g>
<circle fill="#BA3D3D" cx="108.269" cy="95.303" r="2.99"/>
</svg>
